<?xml version="1.0" encoding="UTF-8" standalone="no"?>
<svg width="500px" height="502px" viewBox="0 0 500 502" version="1.1" xmlns="http://www.w3.org/2000/svg" xmlns:xlink="http://www.w3.org/1999/xlink" xmlns:sketch="http://www.bohemiancoding.com/sketch/ns">
    <!-- Generator: Sketch 3.3.3 (12072) - http://www.bohemiancoding.com/sketch -->
    <title>whole chart copy 2</title>
    <desc>Created with Sketch.</desc>
    <defs></defs>
    <g id="Page-1" stroke="none" stroke-width="1" fill="none" fill-rule="evenodd" sketch:type="MSPage">
        <g id="Tipping-Point-Landing-Page" sketch:type="MSArtboardGroup" transform="translate(-123.000000, -1396.000000)">
            <g id="TP-Landing-Page" sketch:type="MSLayerGroup" transform="translate(0.000000, -50.000000)">
                <g id="Interactive-Chart" transform="translate(47.000000, 1304.000000)" sketch:type="MSShapeGroup">
                    <g id="pie-chart-clicked" transform="translate(0.000000, 68.000000)">
                        <g id="whole-chart-copy-2" transform="translate(325.354026, 324.712394) rotate(-21.000000) translate(-325.354026, -324.712394) translate(73.854026, 74.212394)">
                            <g id="masked-chart" transform="translate(251.000000, 250.772865) rotate(-90.000000) translate(-251.000000, -250.772865) translate(1.000000, -0.227135)">
                                <path d="M249.387657,501.002449 C387.120657,501.002449 498.775315,389.347792 498.775315,251.614792 C498.775315,113.881792 387.120657,2.2271346 249.387657,2.2271346 C111.654657,2.2271346 1.13686838e-12,113.881792 1.13686838e-12,251.614792 C1.13686838e-12,389.347792 111.654657,501.002449 249.387657,501.002449 Z M249.387657,351.369855 C304.480857,351.369855 349.14272,306.707992 349.14272,251.614792 C349.14272,196.521592 304.480857,151.859729 249.387657,151.859729 C194.294457,151.859729 149.632594,196.521592 149.632594,251.614792 C149.632594,306.707992 194.294457,351.369855 249.387657,351.369855 Z" id="mask" fill="#FFFFFF"></path>
                                <g id="community" transform="translate(137.000000, 2.000000)" fill="#EA615A">
                                    <path d="M112.202707,149.859897 L112.202638,0.0282663717 C112.202638,0.0282663717 81.3868048,-0.164545082 53.2552075,7.06734401 C25.1236103,14.2992331 0.768158941,25.9808704 0.768158941,25.9808704 L68.0741298,160.217974 C81.3725676,153.613323 96.3540674,149.888657 112.202707,149.859897 Z" id="Path-4"></path>
                                </g>
                                <g id="world" transform="translate(32.000000, 27.000000)" fill="#EE817A">
                                    <path d="M173.154324,135.178191 L105.940249,0.819603561 C105.940249,0.819603561 77.4096931,14.8812231 49.349692,39.6688515 C21.2896909,64.4564798 0.434780875,100.897503 0.434780875,100.897503 L131.051534,174.610436 C140.878878,157.679394 155.543781,143.904672 173.154324,135.178191 Z" id="Path-5"></path>
                                </g>
                                <g id="future" transform="translate(0.000000, 127.000000)" fill="#6EBCA7">
                                    <path d="M163.015914,74.6718548 L32.2075122,0.974493324 C32.2075122,0.974493324 14.5458699,28.7098648 6.07548167,68.3994735 C-2.39490651,108.089082 0.680966639,148.698096 0.680966639,148.698096 L150.013636,133.394409 C149.761375,130.501482 149.632594,127.573176 149.632594,124.614792 C149.632594,106.418044 154.504831,89.3592676 163.015914,74.6718548 Z" id="Path-7"></path>
                                </g>
                                <g id="freedom" transform="translate(1.000000, 260.000000)" fill="#61A290">
                                    <path d="M149.008589,0.336335086 L0.220774682,15.4963004 C0.220774682,15.4963004 2.40735915,111.939542 89.4376326,183.671094 C176.467906,255.402646 275.484195,239.686825 275.484195,239.686825 L259.200438,90.7906263 C255.648705,91.1734513 252.041117,91.3698549 248.387657,91.3698549 C196.233047,91.3698549 153.426667,51.3453242 149.008589,0.336335086 Z" id="Path-6"></path>
                                </g>
                                <g id="congregatio" transform="translate(249.000000, 1.000000)" fill="#E5423B">
                                    <path d="M0.20275188,150.827985 L0.20275188,0.928768214 C0.20275188,0.928768214 80.6785667,-3.06179404 153.104989,53.5433443 C225.531411,110.148483 249.641915,175.618542 249.641915,249.229461 C249.641915,286.247561 248.65429,350.064928 181.199609,422.297915 C113.744927,494.530903 27.4997203,498.623218 27.4997203,498.623218 L11.2020339,349.722387 C61.2087114,344.332565 100.14272,301.994596 100.14272,250.564756 C100.14272,195.481573 55.4808574,150.82783 0.387657383,150.82783 C0.326009137,150.82783 0.264373953,150.827886 0.202751878,150.827997 Z" id="Path-3-Copy-2"></path>
                                </g>
                            </g>
                        </g>
                    </g>
                </g>
            </g>
        </g>
    </g>
</svg>